<svg id="Layer_1" data-name="Layer 1" xmlns="http://www.w3.org/2000/svg" viewBox="0 0 1196.85 227.86"><defs><style>.cls-1{fill:#fff;}.cls-2{fill:#e80f00;}</style></defs><polygon class="cls-1" points="193.4 194.1 33.65 194.1 33.65 33.65 159.75 33.65 159.75 0 33.65 0 0 0 0 33.65 0 194.1 0 227.75 33.65 227.75 222.52 227.75 222.52 227.74 227.05 227.74 227.05 67.3 193.4 67.3 193.4 194.1"/><rect class="cls-2" x="193.4" width="33.65" height="33.65"/><path class="cls-1" d="M768.23,350.87c0,14.68,13.15,26.64,29.3,26.64h45.59v14.8H797.53c-25.13,0-45.58-18.59-45.58-41.44s20.45-41.44,45.58-41.44h45.59v14.8H797.53C781.38,324.23,768.23,336.19,768.23,350.87Z" transform="translate(-459.84 -308.99)"/><path class="cls-1" d="M856.15,392.31V309.43h16.28v82.88Z" transform="translate(-459.84 -308.99)"/><path class="cls-1" d="M959.05,377.63l8.33,14.8H949.15l-8.34-14.8-8.72-15.51-.4-.71a16.52,16.52,0,0,0-13.8-7.11H901.61v38.13H885.33V309.55H942.9a25.67,25.67,0,0,1,17.32,6.51,21.67,21.67,0,0,1,7.16,15.87c0,9-5.86,16.81-14.32,20.36a23.51,23.51,0,0,1-7,1.78ZM942.9,339.5a8.1,8.1,0,0,0,3.38-.71,7.24,7.24,0,0,0,2.48-12.31,8.62,8.62,0,0,0-5.86-2.13H901.61v15.27Z" transform="translate(-459.84 -308.99)"/><path class="cls-1" d="M995.52,350.87c0,14.68,13.16,26.64,29.31,26.64h45.59v14.8h-45.59c-25.14,0-45.59-18.59-45.59-41.44s20.45-41.44,45.59-41.44h45.59v14.8h-45.59C1008.68,324.23,995.52,336.19,995.52,350.87Z" transform="translate(-459.84 -308.99)"/><path class="cls-1" d="M1174.62,309.43v41.44c0,22.85-20.45,41.44-45.59,41.44s-45.59-18.59-45.59-41.44V309.43h16.28v41.44c0,14.68,13.16,26.64,29.31,26.64s29.31-12,29.31-26.64V309.43Z" transform="translate(-459.84 -308.99)"/><path class="cls-1" d="M1187.65,392.31V309.43h16.28v82.88Z" transform="translate(-459.84 -308.99)"/><path class="cls-1" d="M1308,309.55v14.8h-37.38v68.08h-16.29V324.35H1217v-14.8Z" transform="translate(-459.84 -308.99)"/><path class="cls-1" d="M1391.1,332.4v-.47c0-4.15-3.78-7.58-8.34-7.58h-37c-4.56,0-8.33,3.43-8.33,7.58v.47c0,4.14,3.77,7.58,8.33,7.58h32.83a30,30,0,0,1,21.23,8.52c.39.36.65.71,1,1.07a24.8,24.8,0,0,1,6.51,16.58c0,14.44-12.89,26.16-28.78,26.16h-28.53c-15.89,0-28.78-11.72-28.78-26.16h16.28c0,6.27,5.6,11.36,12.5,11.36h28.53c6.9,0,12.63-5.09,12.63-11.36s-5.73-11.37-12.63-11.37h-32.83a25.66,25.66,0,0,1-17.06-6.28,21.63,21.63,0,0,1-3.13-3.55,20.65,20.65,0,0,1-4.29-12.67v-.47c0-12.32,10.94-22.38,24.48-22.38h37c13.55,0,24.62,10.06,24.62,22.38v.47Z" transform="translate(-459.84 -308.99)"/><path class="cls-1" d="M753.25,536.74V453.85h16.28v82.89Z" transform="translate(-459.84 -308.99)"/><path class="cls-1" d="M873.73,454v82.89l-16.28-11.37L798.84,484.4v52.46H782.56V454.21l16.28,11.37,58.61,41.08V453.85Z" transform="translate(-459.84 -308.99)"/><path class="cls-1" d="M977.8,454v14.8H940.42v68.09H924.14V468.77H886.76V454Z" transform="translate(-459.84 -308.99)"/><path class="cls-1" d="M1007.24,476.23v7.7h58.61v14.8h-58.61v15.63c0,4.15,3.78,7.58,8.34,7.58h66.56v14.8h-66.56c-13.55,0-24.49-10.06-24.49-22.38V476.23c0-12.31,10.94-22.38,24.49-22.38h66.56v14.81h-66.56C1011,468.66,1007.24,472.09,1007.24,476.23Z" transform="translate(-459.84 -308.99)"/><path class="cls-1" d="M1104.28,495.3c0,14.68,13.16,26.64,29.31,26.64h29.3V506.07h-29.3v-14.8h45.58v45.47h-45.58c-25.14,0-45.59-18.59-45.59-41.44s20.45-41.45,45.59-41.45h45.58v14.81h-45.58C1117.44,468.66,1104.28,480.62,1104.28,495.3Z" transform="translate(-459.84 -308.99)"/><path class="cls-1" d="M1265.79,522.06l8.34,14.8H1255.9l-8.34-14.8-8.73-15.51-.39-.71a16.49,16.49,0,0,0-13.8-7.11h-16.29v38.13h-16.28V454h57.57a25.69,25.69,0,0,1,17.33,6.52,21.64,21.64,0,0,1,7.16,15.86c0,9-5.86,16.82-14.33,20.37a23.14,23.14,0,0,1-7,1.77Zm-16.15-38.13a8.27,8.27,0,0,0,3.39-.71,7.53,7.53,0,0,0,5-6.87,7.44,7.44,0,0,0-2.48-5.44,8.6,8.6,0,0,0-5.86-2.14h-41.29v15.28Z" transform="translate(-459.84 -308.99)"/><path class="cls-1" d="M1375.21,536.74H1357l-8.33-14.8-19.93-35.52-19.93,35.52-8.33,14.8h-18.24l8.34-14.8,38.16-68.09,38.16,68.09Z" transform="translate(-459.84 -308.99)"/><path class="cls-1" d="M1448.28,454v14.8H1410.9v68.09h-16.28V468.77h-37.38V454Z" transform="translate(-459.84 -308.99)"/><path class="cls-1" d="M1477.72,476.23v7.7h58.61v14.8h-58.61v15.63c0,4.15,3.78,7.58,8.34,7.58h66.55v14.8h-66.55c-13.55,0-24.49-10.06-24.49-22.38V476.23c0-12.31,10.94-22.38,24.49-22.38h66.55v14.81h-66.55C1481.5,468.66,1477.72,472.09,1477.72,476.23Z" transform="translate(-459.84 -308.99)"/><path class="cls-1" d="M1611.1,454c25.14,0,45.59,18.47,45.59,41.33a39,39,0,0,1-10.81,26.76c-.79.83-1.7,1.65-2.61,2.48a47.08,47.08,0,0,1-32,12.2h-45.59V453.85Zm-29.31,68.09h29.31c16.15,0,29.3-12,29.3-26.64s-13.15-26.65-29.3-26.65h-29.31Z" transform="translate(-459.84 -308.99)"/></svg>